<mxfile host="app.diagrams.net" agent="Mozilla/5.0 (Windows NT 10.0; Win64; x64) AppleWebKit/537.36 (KHTML, like Gecko) Chrome/126.0.0.0 Safari/537.36" version="24.7.4" pages="3">
  <diagram name="Contact Us" id="WfPcPeuEbKL5txa3K0aU">
    <mxGraphModel dx="1730" dy="426" grid="1" gridSize="1" guides="1" tooltips="1" connect="1" arrows="1" fold="1" page="1" pageScale="1" pageWidth="850" pageHeight="1100" math="0" shadow="0">
      <root>
        <mxCell id="0" />
        <mxCell id="1" parent="0" />
        <mxCell id="PIo9eZcKgDFtOkMhxgA0-1" value="" style="rounded=0;whiteSpace=wrap;html=1;fillColor=#990099;strokeColor=#9673a6;fontFamily=sans-serif;" parent="1" vertex="1">
          <mxGeometry x="-838" y="18" width="829" height="110" as="geometry" />
        </mxCell>
        <mxCell id="PIo9eZcKgDFtOkMhxgA0-4" value="" style="verticalLabelPosition=bottom;shadow=0;dashed=0;align=center;html=1;verticalAlign=top;strokeWidth=1;shape=mxgraph.mockup.graphics.simpleIcon;strokeColor=#999999;fontFamily=sans-serif;" parent="1" vertex="1">
          <mxGeometry x="-768" y="28" width="99" height="90" as="geometry" />
        </mxCell>
        <mxCell id="PIo9eZcKgDFtOkMhxgA0-6" value="" style="swimlane;shape=mxgraph.bootstrap.anchor;strokeColor=#999999;fillColor=#ffffff;fontColor=#666666;childLayout=stackLayout;horizontal=0;startSize=0;horizontalStack=1;resizeParent=1;resizeParentMax=0;resizeLast=0;collapsible=0;marginBottom=0;whiteSpace=wrap;html=1;fontFamily=sans-serif;" parent="1" vertex="1">
          <mxGeometry x="-568" y="48" width="475" height="40" as="geometry" />
        </mxCell>
        <mxCell id="PIo9eZcKgDFtOkMhxgA0-7" value="Home" style="text;strokeColor=inherit;align=center;verticalAlign=middle;spacingLeft=10;spacingRight=10;overflow=hidden;points=[[0,0.5],[1,0.5]];portConstraint=eastwest;rotatable=0;whiteSpace=wrap;html=1;fillColor=inherit;fontColor=inherit;fontSize=17;fontFamily=sans-serif;" parent="PIo9eZcKgDFtOkMhxgA0-6" vertex="1">
          <mxGeometry width="89" height="40" as="geometry" />
        </mxCell>
        <mxCell id="PIo9eZcKgDFtOkMhxgA0-17" style="edgeStyle=orthogonalEdgeStyle;rounded=0;orthogonalLoop=1;jettySize=auto;html=1;exitX=1;exitY=0.5;exitDx=0;exitDy=0;entryX=0;entryY=0.5;entryDx=0;entryDy=0;fontFamily=sans-serif;" parent="PIo9eZcKgDFtOkMhxgA0-6" source="PIo9eZcKgDFtOkMhxgA0-8" target="PIo9eZcKgDFtOkMhxgA0-11" edge="1">
          <mxGeometry relative="1" as="geometry" />
        </mxCell>
        <mxCell id="PIo9eZcKgDFtOkMhxgA0-8" value="About Us" style="text;strokeColor=inherit;align=center;verticalAlign=middle;spacingLeft=10;spacingRight=10;overflow=hidden;points=[[0,0.5],[1,0.5]];portConstraint=eastwest;rotatable=0;whiteSpace=wrap;html=1;fillColor=inherit;fontColor=inherit;fontSize=17;fontFamily=sans-serif;" parent="PIo9eZcKgDFtOkMhxgA0-6" vertex="1">
          <mxGeometry x="89" width="129" height="40" as="geometry" />
        </mxCell>
        <mxCell id="PIo9eZcKgDFtOkMhxgA0-11" value="" style="text;strokeColor=inherit;align=center;verticalAlign=middle;spacingLeft=10;spacingRight=10;overflow=hidden;points=[[0,0.5],[1,0.5]];portConstraint=eastwest;rotatable=0;whiteSpace=wrap;html=1;fillColor=inherit;fontColor=inherit;fontSize=17;fontFamily=sans-serif;" parent="PIo9eZcKgDFtOkMhxgA0-6" vertex="1">
          <mxGeometry x="218" width="29" height="40" as="geometry" />
        </mxCell>
        <mxCell id="PIo9eZcKgDFtOkMhxgA0-9" value="Trips" style="text;strokeColor=inherit;align=center;verticalAlign=middle;spacingLeft=10;spacingRight=10;overflow=hidden;points=[[0,0.5],[1,0.5]];portConstraint=eastwest;rotatable=0;whiteSpace=wrap;html=1;fillColor=inherit;fontColor=inherit;fontSize=17;fontFamily=sans-serif;" parent="PIo9eZcKgDFtOkMhxgA0-6" vertex="1">
          <mxGeometry x="247" width="119" height="40" as="geometry" />
        </mxCell>
        <mxCell id="PIo9eZcKgDFtOkMhxgA0-10" value="Contact Us" style="text;strokeColor=inherit;align=center;verticalAlign=middle;spacingLeft=10;spacingRight=10;overflow=hidden;points=[[0,0.5],[1,0.5]];portConstraint=eastwest;rotatable=0;whiteSpace=wrap;html=1;fillColor=inherit;fontColor=inherit;fontSize=17;fontFamily=sans-serif;" parent="PIo9eZcKgDFtOkMhxgA0-6" vertex="1">
          <mxGeometry x="366" width="109" height="40" as="geometry" />
        </mxCell>
        <mxCell id="PIo9eZcKgDFtOkMhxgA0-30" value="" style="strokeWidth=1;shadow=0;dashed=0;align=center;html=1;shape=mxgraph.mockup.forms.rrect;rSize=0;strokeColor=#999999;fillColor=#ffffff;fontFamily=sans-serif;" parent="1" vertex="1">
          <mxGeometry x="-829" y="1076" width="452" height="572" as="geometry" />
        </mxCell>
        <mxCell id="PIo9eZcKgDFtOkMhxgA0-31" value="Contact Form" style="strokeWidth=1;shadow=0;dashed=0;align=center;html=1;shape=mxgraph.mockup.forms.anchor;fontSize=18;fontColor=#666666;align=left;resizeWidth=1;spacingLeft=0;fontFamily=sans-serif;labelBorderColor=default;" parent="PIo9eZcKgDFtOkMhxgA0-30" vertex="1">
          <mxGeometry width="212.212" height="20" relative="1" as="geometry">
            <mxPoint x="10" y="10" as="offset" />
          </mxGeometry>
        </mxCell>
        <mxCell id="PIo9eZcKgDFtOkMhxgA0-32" value="" style="shape=line;strokeColor=#ddeeff;strokeWidth=2;html=1;resizeWidth=1;fontFamily=sans-serif;labelBorderColor=default;fontSize=18;" parent="PIo9eZcKgDFtOkMhxgA0-30" vertex="1">
          <mxGeometry width="382.7815999999999" height="10" relative="1" as="geometry">
            <mxPoint x="10" y="30" as="offset" />
          </mxGeometry>
        </mxCell>
        <mxCell id="PIo9eZcKgDFtOkMhxgA0-33" value="Your Name:" style="strokeWidth=1;shadow=0;dashed=0;align=center;html=1;shape=mxgraph.mockup.forms.anchor;fontSize=18;fontColor=#666666;align=left;resizeWidth=1;spacingLeft=0;fontFamily=sans-serif;labelBorderColor=default;" parent="PIo9eZcKgDFtOkMhxgA0-30" vertex="1">
          <mxGeometry width="212.212" height="20" relative="1" as="geometry">
            <mxPoint x="11" y="55" as="offset" />
          </mxGeometry>
        </mxCell>
        <mxCell id="PIo9eZcKgDFtOkMhxgA0-34" value="" style="strokeWidth=1;shadow=0;dashed=0;align=center;html=1;shape=mxgraph.mockup.forms.rrect;rSize=0;strokeColor=#999999;fontColor=#666666;align=left;spacingLeft=5;resizeWidth=1;fontFamily=sans-serif;labelBorderColor=default;fontSize=18;" parent="PIo9eZcKgDFtOkMhxgA0-30" vertex="1">
          <mxGeometry width="318.81800000000004" height="25" relative="1" as="geometry">
            <mxPoint x="10" y="77" as="offset" />
          </mxGeometry>
        </mxCell>
        <mxCell id="PIo9eZcKgDFtOkMhxgA0-35" value="Your Email:" style="strokeWidth=1;shadow=0;dashed=0;align=center;html=1;shape=mxgraph.mockup.forms.anchor;fontSize=18;fontColor=#666666;align=left;resizeWidth=1;spacingLeft=0;fontFamily=sans-serif;labelBorderColor=default;" parent="PIo9eZcKgDFtOkMhxgA0-30" vertex="1">
          <mxGeometry width="212.212" height="20" relative="1" as="geometry">
            <mxPoint x="6" y="125" as="offset" />
          </mxGeometry>
        </mxCell>
        <mxCell id="PIo9eZcKgDFtOkMhxgA0-36" value="" style="strokeWidth=1;shadow=0;dashed=0;align=center;html=1;shape=mxgraph.mockup.forms.rrect;rSize=0;strokeColor=#999999;fontColor=#666666;align=left;spacingLeft=5;resizeWidth=1;fontFamily=sans-serif;labelBorderColor=default;fontSize=18;" parent="PIo9eZcKgDFtOkMhxgA0-30" vertex="1">
          <mxGeometry width="327.6763782234957" height="25" relative="1" as="geometry">
            <mxPoint x="5" y="148" as="offset" />
          </mxGeometry>
        </mxCell>
        <mxCell id="PIo9eZcKgDFtOkMhxgA0-41" value="Send Message" style="strokeWidth=1;shadow=0;dashed=0;align=center;html=1;shape=mxgraph.mockup.forms.rrect;rSize=5;strokeColor=none;fontColor=#ffffff;fillColor=#66bbff;fontSize=16;fontStyle=1;fontFamily=sans-serif;" parent="PIo9eZcKgDFtOkMhxgA0-30" vertex="1">
          <mxGeometry y="1" width="169" height="30" relative="1" as="geometry">
            <mxPoint x="3" y="-33" as="offset" />
          </mxGeometry>
        </mxCell>
        <mxCell id="PIo9eZcKgDFtOkMhxgA0-45" value="" style="swimlane;strokeColor=#999999;swimlaneFillColor=#FFFFFF;fillColor=#ffffff;fontColor=#666666;fontStyle=0;childLayout=stackLayout;horizontal=1;startSize=0;horizontalStack=0;resizeParent=1;resizeParentMax=0;resizeLast=0;collapsible=0;marginBottom=0;whiteSpace=wrap;html=1;fontFamily=sans-serif;labelBorderColor=default;fontSize=18;" parent="PIo9eZcKgDFtOkMhxgA0-30" vertex="1">
          <mxGeometry x="9.661023266475645" y="226.9974585635359" width="318.81800000000004" height="148.78612716763007" as="geometry" />
        </mxCell>
        <mxCell id="PIo9eZcKgDFtOkMhxgA0-46" value="General Enquiry" style="text;strokeColor=none;align=left;verticalAlign=middle;spacingLeft=27;spacingRight=10;overflow=hidden;points=[[0,0.5],[1,0.5]];portConstraint=eastwest;rotatable=0;whiteSpace=wrap;html=1;fillColor=none;fontColor=inherit;fontSize=18;fontFamily=sans-serif;labelBorderColor=default;" parent="PIo9eZcKgDFtOkMhxgA0-45" vertex="1">
          <mxGeometry width="318.81800000000004" height="49.59537572254335" as="geometry" />
        </mxCell>
        <mxCell id="PIo9eZcKgDFtOkMhxgA0-47" value="" style="shape=ellipse;resizable=0;fillColor=#EEEEEE;strokeColor=#999999;gradientColor=#cccccc;html=1;fontFamily=sans-serif;labelBorderColor=default;fontSize=18;" parent="PIo9eZcKgDFtOkMhxgA0-46" vertex="1">
          <mxGeometry y="0.5" width="15" height="15" relative="1" as="geometry">
            <mxPoint x="8" y="-7.5" as="offset" />
          </mxGeometry>
        </mxCell>
        <mxCell id="PIo9eZcKgDFtOkMhxgA0-48" value="Reservation Request" style="text;strokeColor=none;align=left;verticalAlign=middle;spacingLeft=27;spacingRight=10;overflow=hidden;points=[[0,0.5],[1,0.5]];portConstraint=eastwest;rotatable=0;whiteSpace=wrap;html=1;rSize=5;fillColor=none;fontColor=inherit;fontSize=18;fontFamily=sans-serif;labelBorderColor=default;" parent="PIo9eZcKgDFtOkMhxgA0-45" vertex="1">
          <mxGeometry y="49.59537572254335" width="318.81800000000004" height="49.59537572254335" as="geometry" />
        </mxCell>
        <mxCell id="PIo9eZcKgDFtOkMhxgA0-49" value="" style="shape=ellipse;resizable=0;fillColor=#EEEEEE;strokeColor=#999999;gradientColor=#cccccc;html=1;fontFamily=sans-serif;labelBorderColor=default;fontSize=18;" parent="PIo9eZcKgDFtOkMhxgA0-48" vertex="1">
          <mxGeometry y="0.5" width="15" height="15" relative="1" as="geometry">
            <mxPoint x="8" y="-7.5" as="offset" />
          </mxGeometry>
        </mxCell>
        <mxCell id="PIo9eZcKgDFtOkMhxgA0-50" value="&lt;font color=&quot;#2d2e2f&quot;&gt;Website Suggestion&lt;/font&gt;" style="text;strokeColor=none;align=left;verticalAlign=middle;spacingLeft=27;spacingRight=10;overflow=hidden;points=[[0,0.5],[1,0.5]];portConstraint=eastwest;rotatable=0;whiteSpace=wrap;html=1;rSize=5;fillColor=none;fontColor=#008CFF;fontSize=18;fontFamily=sans-serif;labelBorderColor=default;" parent="PIo9eZcKgDFtOkMhxgA0-45" vertex="1">
          <mxGeometry y="99.1907514450867" width="318.81800000000004" height="49.59537572254335" as="geometry" />
        </mxCell>
        <mxCell id="PIo9eZcKgDFtOkMhxgA0-51" value="" style="shape=ellipse;resizable=0;fillColor=#AAAAAA;gradientColor=#666666;strokeColor=#444444;html=1;fontFamily=sans-serif;labelBorderColor=default;fontSize=18;" parent="PIo9eZcKgDFtOkMhxgA0-50" vertex="1">
          <mxGeometry y="0.5" width="15" height="15" relative="1" as="geometry">
            <mxPoint x="8" y="-7.5" as="offset" />
          </mxGeometry>
        </mxCell>
        <mxCell id="PIo9eZcKgDFtOkMhxgA0-52" value="" style="shape=ellipse;resizable=0;fillColor=#444444;strokeColor=none;html=1;fontFamily=sans-serif;labelBorderColor=default;fontSize=18;" parent="PIo9eZcKgDFtOkMhxgA0-51" vertex="1">
          <mxGeometry x="0.2" y="0.2" width="9" height="9" relative="1" as="geometry" />
        </mxCell>
        <mxCell id="KOAHYhruklzOwgLgZ3cI-2" value="&lt;font style=&quot;font-size: 18px;&quot;&gt;&lt;b style=&quot;font-size: 18px;&quot;&gt;Purpose Of Message:&lt;/b&gt;&lt;/font&gt;" style="text;html=1;align=center;verticalAlign=middle;whiteSpace=wrap;rounded=0;fontFamily=sans-serif;fontSize=18;" parent="PIo9eZcKgDFtOkMhxgA0-30" vertex="1">
          <mxGeometry x="6.038511633237822" y="189.9979926335175" width="258.0311977077364" height="46.34990791896869" as="geometry" />
        </mxCell>
        <mxCell id="KOAHYhruklzOwgLgZ3cI-3" value="Your Messaqe:" style="text;html=1;align=center;verticalAlign=middle;whiteSpace=wrap;rounded=0;fontFamily=sans-serif;fontSize=21;" parent="PIo9eZcKgDFtOkMhxgA0-30" vertex="1">
          <mxGeometry x="9.661023266475645" y="379.00147329650093" width="210.37923209169054" height="38.97605893186004" as="geometry" />
        </mxCell>
        <mxCell id="KOAHYhruklzOwgLgZ3cI-4" value="" style="rounded=0;whiteSpace=wrap;html=1;fontFamily=sans-serif;" parent="PIo9eZcKgDFtOkMhxgA0-30" vertex="1">
          <mxGeometry x="6.037300171919771" y="413.99731123388585" width="313.0142349570201" height="63.20441988950276" as="geometry" />
        </mxCell>
        <mxCell id="KOAHYhruklzOwgLgZ3cI-5" value="&lt;span style=&quot;font-family: &amp;quot;Open Sans&amp;quot;, sans-serif; font-size: medium; font-weight: 700; text-align: start; background-color: rgb(250, 250, 250);&quot;&gt;&lt;font color=&quot;#bababa&quot;&gt;Please subscribe me to the monthly newsletter&lt;/font&gt;&lt;/span&gt;" style="text;html=1;align=center;verticalAlign=middle;whiteSpace=wrap;rounded=0;" parent="PIo9eZcKgDFtOkMhxgA0-30" vertex="1">
          <mxGeometry x="12" y="506" width="403.04" height="30" as="geometry" />
        </mxCell>
        <mxCell id="KOAHYhruklzOwgLgZ3cI-6" value="" style="rounded=0;whiteSpace=wrap;html=1;fontFamily=sans-serif;" parent="PIo9eZcKgDFtOkMhxgA0-30" vertex="1">
          <mxGeometry x="8" y="490" width="19" height="19" as="geometry" />
        </mxCell>
        <mxCell id="GRNiWKw2iEn0BsGY9q3Y-6" value="" style="group;fontFamily=sans-serif;" parent="1" vertex="1" connectable="0">
          <mxGeometry x="-811" y="410" width="401" height="402" as="geometry" />
        </mxCell>
        <mxCell id="GRNiWKw2iEn0BsGY9q3Y-1" value="" style="verticalLabelPosition=bottom;shadow=0;dashed=0;align=center;html=1;verticalAlign=top;strokeWidth=1;shape=mxgraph.mockup.graphics.simpleIcon;strokeColor=#999999;fontFamily=sans-serif;" parent="GRNiWKw2iEn0BsGY9q3Y-6" vertex="1">
          <mxGeometry width="401.00000000000006" height="401.99999999999994" as="geometry" />
        </mxCell>
        <mxCell id="GRNiWKw2iEn0BsGY9q3Y-2" value="Google map showing office location" style="text;html=1;align=center;verticalAlign=middle;whiteSpace=wrap;rounded=0;fontSize=19;fontFamily=sans-serif;" parent="GRNiWKw2iEn0BsGY9q3Y-6" vertex="1">
          <mxGeometry x="126.94736842105264" y="149.24550898203591" width="145.9916897506925" height="95.08383233532933" as="geometry" />
        </mxCell>
        <mxCell id="GRNiWKw2iEn0BsGY9q3Y-7" value="&lt;h1 style=&quot;margin-top: 0px; font-size: 23px;&quot;&gt;&lt;font face=&quot;Courier New&quot; style=&quot;font-size: 23px;&quot;&gt;Contact Information&lt;/font&gt;&lt;/h1&gt;&lt;blockquote style=&quot;margin: 0px 0px 0px 40px; border: none; padding: 0px; font-size: 23px;&quot;&gt;&lt;blockquote style=&quot;margin: 0px 0px 0px 40px; border: none; padding: 0px;&quot;&gt;&lt;blockquote style=&quot;margin: 0 0 0 40px; border: none; padding: 0px;&quot;&gt;&lt;blockquote style=&quot;margin: 0 0 0 40px; border: none; padding: 0px;&quot;&gt;&lt;blockquote style=&quot;margin: 0 0 0 40px; border: none; padding: 0px;&quot;&gt;&lt;blockquote style=&quot;margin: 0 0 0 40px; border: none; padding: 0px;&quot;&gt;&lt;div&gt;&lt;font face=&quot;heGOZnoh-wMHPwGv8BQ-&quot; style=&quot;font-size: 23px;&quot;&gt;&lt;strong style=&quot;color: rgb(51, 51, 51); box-sizing: border-box;&quot;&gt;Address:&lt;/strong&gt;&lt;span style=&quot;background-color: rgb(250, 250, 250); color: rgb(51, 51, 51);&quot;&gt;&amp;nbsp;&lt;/span&gt;&lt;span style=&quot;background-color: rgb(250, 250, 250); color: rgb(51, 51, 51);&quot;&gt;123 River Road, Adventure City, CA 98765&lt;/span&gt;&lt;/font&gt;&lt;/div&gt;&lt;/blockquote&gt;&lt;/blockquote&gt;&lt;/blockquote&gt;&lt;/blockquote&gt;&lt;/blockquote&gt;&lt;blockquote style=&quot;margin: 0px 0px 0px 40px; border: none; padding: 0px;&quot;&gt;&lt;blockquote style=&quot;margin: 0 0 0 40px; border: none; padding: 0px;&quot;&gt;&lt;blockquote style=&quot;margin: 0 0 0 40px; border: none; padding: 0px;&quot;&gt;&lt;blockquote style=&quot;margin: 0 0 0 40px; border: none; padding: 0px;&quot;&gt;&lt;blockquote style=&quot;margin: 0 0 0 40px; border: none; padding: 0px;&quot;&gt;&lt;p style=&quot;box-sizing: border-box; color: rgb(51, 51, 51); background-color: rgb(250, 250, 250);&quot;&gt;&lt;font face=&quot;heGOZnoh-wMHPwGv8BQ-&quot; style=&quot;font-size: 23px;&quot;&gt;&lt;strong style=&quot;box-sizing: border-box;&quot;&gt;Phone:&lt;/strong&gt;&amp;nbsp;+1 (555) 123-4567&lt;/font&gt;&lt;/p&gt;&lt;/blockquote&gt;&lt;/blockquote&gt;&lt;/blockquote&gt;&lt;/blockquote&gt;&lt;/blockquote&gt;&lt;blockquote style=&quot;margin: 0px 0px 0px 40px; border: none; padding: 0px;&quot;&gt;&lt;blockquote style=&quot;margin: 0px 0px 0px 40px; border: none; padding: 0px;&quot;&gt;&lt;blockquote style=&quot;margin: 0px 0px 0px 40px; border: none; padding: 0px;&quot;&gt;&lt;blockquote style=&quot;margin: 0px 0px 0px 40px; border: none; padding: 0px;&quot;&gt;&lt;blockquote style=&quot;margin: 0px 0px 0px 40px; border: none; padding: 0px;&quot;&gt;&lt;p style=&quot;box-sizing: border-box; color: rgb(51, 51, 51); background-color: rgb(250, 250, 250);&quot;&gt;&lt;font face=&quot;heGOZnoh-wMHPwGv8BQ-&quot; style=&quot;font-size: 23px;&quot;&gt;&lt;strong style=&quot;box-sizing: border-box;&quot;&gt;Email:&lt;/strong&gt;&amp;nbsp;info@wildriveradventures.com&lt;/font&gt;&lt;/p&gt;&lt;/blockquote&gt;&lt;/blockquote&gt;&lt;/blockquote&gt;&lt;/blockquote&gt;&lt;/blockquote&gt;&lt;/blockquote&gt;" style="text;html=1;whiteSpace=wrap;overflow=hidden;rounded=0;align=left;fontFamily=sans-serif;" parent="1" vertex="1">
          <mxGeometry x="-838" y="146" width="688" height="220" as="geometry" />
        </mxCell>
        <mxCell id="GRNiWKw2iEn0BsGY9q3Y-8" value="" style="verticalLabelPosition=bottom;shadow=0;dashed=0;align=center;html=1;verticalAlign=top;strokeWidth=1;shape=mxgraph.mockup.graphics.simpleIcon;strokeColor=#999999;flipV=0;flipH=0;fontFamily=sans-serif;" parent="1" vertex="1">
          <mxGeometry x="-817" y="905" width="117" height="120" as="geometry" />
        </mxCell>
        <mxCell id="GRNiWKw2iEn0BsGY9q3Y-9" value="" style="verticalLabelPosition=bottom;shadow=0;dashed=0;align=center;html=1;verticalAlign=top;strokeWidth=1;shape=mxgraph.mockup.graphics.simpleIcon;strokeColor=#999999;flipV=0;flipH=0;fontFamily=sans-serif;" parent="1" vertex="1">
          <mxGeometry x="-584" y="905" width="119" height="120" as="geometry" />
        </mxCell>
        <mxCell id="GRNiWKw2iEn0BsGY9q3Y-10" value="" style="verticalLabelPosition=bottom;shadow=0;dashed=0;align=center;html=1;verticalAlign=top;strokeWidth=1;shape=mxgraph.mockup.graphics.simpleIcon;strokeColor=#999999;flipV=0;flipH=0;fontFamily=sans-serif;" parent="1" vertex="1">
          <mxGeometry x="-341" y="905" width="119" height="120" as="geometry" />
        </mxCell>
        <mxCell id="GRNiWKw2iEn0BsGY9q3Y-11" value="&lt;font face=&quot;Courier New&quot;&gt;Rafting Guide&lt;/font&gt;" style="text;html=1;align=center;verticalAlign=middle;whiteSpace=wrap;rounded=0;fontSize=17;fontFamily=sans-serif;" parent="1" vertex="1">
          <mxGeometry x="-820" y="1027" width="142" height="30" as="geometry" />
        </mxCell>
        <mxCell id="GRNiWKw2iEn0BsGY9q3Y-12" value="&lt;font face=&quot;Courier New&quot;&gt;Reservation Manager&lt;/font&gt;" style="text;html=1;align=center;verticalAlign=middle;whiteSpace=wrap;rounded=0;fontSize=14;fontFamily=sans-serif;" parent="1" vertex="1">
          <mxGeometry x="-591" y="1025" width="163" height="30" as="geometry" />
        </mxCell>
        <mxCell id="GRNiWKw2iEn0BsGY9q3Y-13" value="&lt;font face=&quot;Courier New&quot;&gt;Safety Instructor&amp;nbsp;&lt;/font&gt;" style="text;html=1;align=center;verticalAlign=middle;whiteSpace=wrap;rounded=0;fontSize=15;fontFamily=sans-serif;" parent="1" vertex="1">
          <mxGeometry x="-346" y="1026" width="178" height="30" as="geometry" />
        </mxCell>
        <mxCell id="uZ7NmstplIfhtr9Hr6V0-1" value="" style="rounded=0;whiteSpace=wrap;html=1;fillColor=#990099;strokeColor=#9673a6;" parent="1" vertex="1">
          <mxGeometry x="-821" y="1659" width="811" height="182" as="geometry" />
        </mxCell>
        <mxCell id="uZ7NmstplIfhtr9Hr6V0-2" value="" style="verticalLabelPosition=bottom;shadow=0;dashed=0;align=center;html=1;verticalAlign=top;strokeWidth=1;shape=mxgraph.mockup.graphics.simpleIcon;strokeColor=#999999;fontFamily=sans-serif;" parent="1" vertex="1">
          <mxGeometry x="-569" y="1740.5" width="70" height="70.5" as="geometry" />
        </mxCell>
        <mxCell id="uZ7NmstplIfhtr9Hr6V0-3" value="" style="verticalLabelPosition=bottom;shadow=0;dashed=0;align=center;html=1;verticalAlign=top;strokeWidth=1;shape=mxgraph.mockup.graphics.simpleIcon;strokeColor=#999999;fontFamily=sans-serif;" parent="1" vertex="1">
          <mxGeometry x="-471" y="1739" width="71" height="72" as="geometry" />
        </mxCell>
        <mxCell id="uZ7NmstplIfhtr9Hr6V0-4" value="" style="verticalLabelPosition=bottom;shadow=0;dashed=0;align=center;html=1;verticalAlign=top;strokeWidth=1;shape=mxgraph.mockup.graphics.simpleIcon;strokeColor=#999999;fontFamily=sans-serif;" parent="1" vertex="1">
          <mxGeometry x="-369" y="1738" width="69" height="70" as="geometry" />
        </mxCell>
        <mxCell id="uZ7NmstplIfhtr9Hr6V0-5" value="&lt;b style=&quot;font-size: 15px;&quot;&gt;Footer Content including Social Media Icons/Links&lt;/b&gt;" style="text;html=1;align=center;verticalAlign=middle;whiteSpace=wrap;rounded=0;fontColor=#FFCCE6;fontFamily=sans-serif;" parent="1" vertex="1">
          <mxGeometry x="-611" y="1675" width="369" height="30" as="geometry" />
        </mxCell>
        <mxCell id="KOAHYhruklzOwgLgZ3cI-1" value="&lt;font face=&quot;Courier New&quot; style=&quot;font-size: 24px;&quot;&gt;Our Team&lt;/font&gt;" style="text;html=1;align=center;verticalAlign=middle;whiteSpace=wrap;rounded=0;labelBorderColor=default;fontSize=24;" parent="1" vertex="1">
          <mxGeometry x="-841" y="857" width="159" height="30" as="geometry" />
        </mxCell>
      </root>
    </mxGraphModel>
  </diagram>
  <diagram id="RzjwjY977G10NYv1KXjv" name="Trips">
    <mxGraphModel dx="1760" dy="852" grid="1" gridSize="1" guides="1" tooltips="1" connect="1" arrows="1" fold="1" page="1" pageScale="1" pageWidth="1200" pageHeight="1600" math="0" shadow="0">
      <root>
        <mxCell id="0" />
        <mxCell id="1" parent="0" />
        <mxCell id="epF_AtFMn-wDvHm4yJ_P-1" value="" style="rounded=0;whiteSpace=wrap;html=1;fillColor=#990099;strokeColor=#9673a6;fontFamily=sans-serif;fontSize=16;" parent="1" vertex="1">
          <mxGeometry x="10" y="10" width="830" height="110" as="geometry" />
        </mxCell>
        <mxCell id="epF_AtFMn-wDvHm4yJ_P-2" value="" style="verticalLabelPosition=bottom;shadow=0;dashed=0;align=center;html=1;verticalAlign=top;strokeWidth=1;shape=mxgraph.mockup.graphics.simpleIcon;strokeColor=#999999;fontFamily=sans-serif;fontSize=16;" parent="1" vertex="1">
          <mxGeometry x="80" y="20" width="100" height="90" as="geometry" />
        </mxCell>
        <mxCell id="epF_AtFMn-wDvHm4yJ_P-3" value="" style="swimlane;shape=mxgraph.bootstrap.anchor;strokeColor=#999999;fillColor=#ffffff;fontColor=#666666;childLayout=stackLayout;horizontal=0;startSize=0;horizontalStack=1;resizeParent=1;resizeParentMax=0;resizeLast=0;collapsible=0;marginBottom=0;whiteSpace=wrap;html=1;fontFamily=sans-serif;fontSize=16;" parent="1" vertex="1">
          <mxGeometry x="280" y="40" width="480" height="40" as="geometry" />
        </mxCell>
        <mxCell id="epF_AtFMn-wDvHm4yJ_P-4" value="Home" style="text;strokeColor=inherit;align=center;verticalAlign=middle;spacingLeft=10;spacingRight=10;overflow=hidden;points=[[0,0.5],[1,0.5]];portConstraint=eastwest;rotatable=0;whiteSpace=wrap;html=1;fillColor=inherit;fontColor=inherit;fontSize=16;fontFamily=sans-serif;" parent="epF_AtFMn-wDvHm4yJ_P-3" vertex="1">
          <mxGeometry width="90" height="40" as="geometry" />
        </mxCell>
        <mxCell id="epF_AtFMn-wDvHm4yJ_P-5" style="edgeStyle=orthogonalEdgeStyle;rounded=0;orthogonalLoop=1;jettySize=auto;html=1;exitX=1;exitY=0.5;exitDx=0;exitDy=0;entryX=0;entryY=0.5;entryDx=0;entryDy=0;fontFamily=sans-serif;fontSize=16;" parent="epF_AtFMn-wDvHm4yJ_P-3" source="epF_AtFMn-wDvHm4yJ_P-6" target="epF_AtFMn-wDvHm4yJ_P-7" edge="1">
          <mxGeometry relative="1" as="geometry" />
        </mxCell>
        <mxCell id="epF_AtFMn-wDvHm4yJ_P-6" value="About Us" style="text;strokeColor=inherit;align=center;verticalAlign=middle;spacingLeft=10;spacingRight=10;overflow=hidden;points=[[0,0.5],[1,0.5]];portConstraint=eastwest;rotatable=0;whiteSpace=wrap;html=1;fillColor=inherit;fontColor=inherit;fontSize=16;fontFamily=sans-serif;" parent="epF_AtFMn-wDvHm4yJ_P-3" vertex="1">
          <mxGeometry x="90" width="130" height="40" as="geometry" />
        </mxCell>
        <mxCell id="epF_AtFMn-wDvHm4yJ_P-7" value="" style="text;strokeColor=inherit;align=center;verticalAlign=middle;spacingLeft=10;spacingRight=10;overflow=hidden;points=[[0,0.5],[1,0.5]];portConstraint=eastwest;rotatable=0;whiteSpace=wrap;html=1;fillColor=inherit;fontColor=inherit;fontSize=16;fontFamily=sans-serif;" parent="epF_AtFMn-wDvHm4yJ_P-3" vertex="1">
          <mxGeometry x="220" width="30" height="40" as="geometry" />
        </mxCell>
        <mxCell id="epF_AtFMn-wDvHm4yJ_P-8" value="Trips" style="text;strokeColor=inherit;align=center;verticalAlign=middle;spacingLeft=10;spacingRight=10;overflow=hidden;points=[[0,0.5],[1,0.5]];portConstraint=eastwest;rotatable=0;whiteSpace=wrap;html=1;fillColor=inherit;fontColor=inherit;fontSize=16;fontFamily=sans-serif;" parent="epF_AtFMn-wDvHm4yJ_P-3" vertex="1">
          <mxGeometry x="250" width="120" height="40" as="geometry" />
        </mxCell>
        <mxCell id="epF_AtFMn-wDvHm4yJ_P-9" value="Contact Us" style="text;strokeColor=inherit;align=center;verticalAlign=middle;spacingLeft=10;spacingRight=10;overflow=hidden;points=[[0,0.5],[1,0.5]];portConstraint=eastwest;rotatable=0;whiteSpace=wrap;html=1;fillColor=inherit;fontColor=inherit;fontSize=16;fontFamily=sans-serif;" parent="epF_AtFMn-wDvHm4yJ_P-3" vertex="1">
          <mxGeometry x="370" width="110" height="40" as="geometry" />
        </mxCell>
        <mxCell id="5DAXcaRZd87Ta663556z-1" value="Water Rafting Trips" style="text;html=1;align=center;verticalAlign=middle;whiteSpace=wrap;rounded=0;fontSize=21;fontStyle=1;labelBorderColor=default;fontFamily=Courier New;" parent="1" vertex="1">
          <mxGeometry x="2" y="122" width="262" height="73" as="geometry" />
        </mxCell>
        <mxCell id="5DAXcaRZd87Ta663556z-4" value="" style="rounded=0;whiteSpace=wrap;html=1;labelBackgroundColor=#000000;" parent="1" vertex="1">
          <mxGeometry x="13" y="196" width="346" height="398" as="geometry" />
        </mxCell>
        <mxCell id="5DAXcaRZd87Ta663556z-5" value="&lt;h2 style=&quot;box-sizing: border-box; color: var(--primary-color); margin-top: 0px; margin-bottom: 20px; text-align: start; font-size: 16px;&quot;&gt;Day Adventure Class 1&lt;/h2&gt;" style="text;html=1;align=center;verticalAlign=middle;whiteSpace=wrap;rounded=0;fontSize=16;fontFamily=sans-serif;" parent="1" vertex="1">
          <mxGeometry x="27" y="202" width="257" height="53" as="geometry" />
        </mxCell>
        <mxCell id="JXR59QSIvElpvNwGaWXN-1" value="" style="verticalLabelPosition=bottom;shadow=0;dashed=0;align=center;html=1;verticalAlign=top;strokeWidth=1;shape=mxgraph.mockup.graphics.simpleIcon;strokeColor=#999999;fontFamily=sans-serif;fontSize=16;" parent="1" vertex="1">
          <mxGeometry x="31" y="247" width="307" height="151" as="geometry" />
        </mxCell>
        <mxCell id="JXR59QSIvElpvNwGaWXN-2" value="&lt;p style=&quot;box-sizing: border-box; color: rgb(51, 51, 51); font-size: 16px; text-align: start;&quot;&gt;Experience a thrilling day on the river with our Class 1 rapids. Perfect for beginners and families.&lt;/p&gt;&lt;ul style=&quot;box-sizing: border-box; list-style-type: none; padding: 0px; color: rgb(51, 51, 51); font-size: 16px; text-align: start;&quot;&gt;&lt;li style=&quot;box-sizing: border-box; padding: 5px 0px; font-size: 16px;&quot;&gt;Length: 1 hours&lt;/li&gt;&lt;li style=&quot;box-sizing: border-box; padding: 5px 0px; font-size: 16px;&quot;&gt;Cost: $300 per person&lt;/li&gt;&lt;li style=&quot;box-sizing: border-box; padding: 5px 0px; font-size: 16px;&quot;&gt;Details: Includes safety gear, guide, and refreshments.&lt;/li&gt;&lt;/ul&gt;" style="text;html=1;align=center;verticalAlign=middle;whiteSpace=wrap;rounded=0;fontFamily=sans-serif;fontSize=16;" parent="1" vertex="1">
          <mxGeometry x="23" y="415" width="319" height="149" as="geometry" />
        </mxCell>
        <mxCell id="JXR59QSIvElpvNwGaWXN-18" value="&lt;h2 style=&quot;box-sizing: border-box; margin-top: 0px; margin-bottom: 20px; text-align: center; background-color: rgb(250, 250, 250); font-size: 16px;&quot;&gt;&lt;font style=&quot;font-size: 16px;&quot; color=&quot;#272626&quot;&gt;Contact Us&lt;/font&gt;&lt;/h2&gt;&lt;h1 style=&quot;margin-top: 0px; font-size: 16px;&quot;&gt;&lt;p style=&quot;box-sizing: border-box; color: rgb(51, 51, 51); font-size: 16px; font-weight: 400; background-color: rgb(250, 250, 250);&quot;&gt;&lt;font style=&quot;font-size: 16px;&quot;&gt;For inquiries about our rafting trips, reservations, or any other questions, please reach out to us:&lt;/font&gt;&lt;/p&gt;&lt;/h1&gt;" style="text;html=1;whiteSpace=wrap;overflow=hidden;rounded=0;fontFamily=sans-serif;fontSize=16;" parent="1" vertex="1">
          <mxGeometry x="88" y="632" width="758" height="143" as="geometry" />
        </mxCell>
        <mxCell id="yeVeVYMTBZjfZut7IfdA-1" value="" style="rounded=0;whiteSpace=wrap;html=1;fillColor=#990099;strokeColor=#9673a6;" parent="1" vertex="1">
          <mxGeometry x="39" y="801" width="1136" height="162" as="geometry" />
        </mxCell>
        <mxCell id="yeVeVYMTBZjfZut7IfdA-2" value="" style="verticalLabelPosition=bottom;shadow=0;dashed=0;align=center;html=1;verticalAlign=top;strokeWidth=1;shape=mxgraph.mockup.graphics.simpleIcon;strokeColor=#999999;fontFamily=sans-serif;fontSize=16;" parent="1" vertex="1">
          <mxGeometry x="311" y="874.5" width="71" height="70.5" as="geometry" />
        </mxCell>
        <mxCell id="yeVeVYMTBZjfZut7IfdA-3" value="" style="verticalLabelPosition=bottom;shadow=0;dashed=0;align=center;html=1;verticalAlign=top;strokeWidth=1;shape=mxgraph.mockup.graphics.simpleIcon;strokeColor=#999999;fontFamily=sans-serif;fontSize=16;" parent="1" vertex="1">
          <mxGeometry x="409" y="873" width="72" height="72" as="geometry" />
        </mxCell>
        <mxCell id="yeVeVYMTBZjfZut7IfdA-4" value="" style="verticalLabelPosition=bottom;shadow=0;dashed=0;align=center;html=1;verticalAlign=top;strokeWidth=1;shape=mxgraph.mockup.graphics.simpleIcon;strokeColor=#999999;fontFamily=sans-serif;fontSize=16;" parent="1" vertex="1">
          <mxGeometry x="511" y="872" width="70" height="70" as="geometry" />
        </mxCell>
        <mxCell id="yeVeVYMTBZjfZut7IfdA-5" value="&lt;b style=&quot;font-size: 16px;&quot;&gt;Footer Content including Social Media Icons/Links&lt;/b&gt;" style="text;html=1;align=center;verticalAlign=middle;whiteSpace=wrap;rounded=0;fontColor=#FFCCE6;fontFamily=sans-serif;fontSize=16;" parent="1" vertex="1">
          <mxGeometry x="269" y="809" width="370" height="30" as="geometry" />
        </mxCell>
        <mxCell id="JXR59QSIvElpvNwGaWXN-11" value="" style="rounded=0;whiteSpace=wrap;html=1;labelBackgroundColor=#000000;fontFamily=sans-serif;fontSize=16;" parent="1" vertex="1">
          <mxGeometry x="806" y="176" width="350" height="398" as="geometry" />
        </mxCell>
        <mxCell id="JXR59QSIvElpvNwGaWXN-12" value="&lt;h2 style=&quot;box-sizing: border-box; color: var(--primary-color); margin-top: 0px; margin-bottom: 20px; text-align: start; font-size: 16px;&quot;&gt;Day Adventure Class 3&lt;/h2&gt;" style="text;html=1;align=center;verticalAlign=middle;whiteSpace=wrap;rounded=0;fontSize=16;fontFamily=sans-serif;" parent="1" vertex="1">
          <mxGeometry x="820" y="182" width="257" height="53" as="geometry" />
        </mxCell>
        <mxCell id="JXR59QSIvElpvNwGaWXN-13" value="" style="verticalLabelPosition=bottom;shadow=0;dashed=0;align=center;html=1;verticalAlign=top;strokeWidth=1;shape=mxgraph.mockup.graphics.simpleIcon;strokeColor=#999999;fontFamily=sans-serif;fontSize=16;" parent="1" vertex="1">
          <mxGeometry x="824" y="227" width="307" height="151" as="geometry" />
        </mxCell>
        <mxCell id="JXR59QSIvElpvNwGaWXN-14" value="&lt;p style=&quot;box-sizing: border-box; color: rgb(51, 51, 51); text-align: start; font-size: 16px;&quot;&gt;&lt;font style=&quot;font-size: 16px;&quot;&gt;Take on the ultimate adventure with our Class 3 rapids, designed for experienced rafters.&lt;/font&gt;&lt;/p&gt;&lt;ul style=&quot;box-sizing: border-box; list-style-type: none; padding: 0px; color: rgb(51, 51, 51); text-align: start; font-size: 16px;&quot;&gt;&lt;li style=&quot;box-sizing: border-box; padding: 5px 0px; font-size: 16px;&quot;&gt;&lt;font style=&quot;font-size: 16px;&quot;&gt;Length: 3 hours&lt;/font&gt;&lt;/li&gt;&lt;li style=&quot;box-sizing: border-box; padding: 5px 0px; font-size: 16px;&quot;&gt;&lt;font style=&quot;font-size: 16px;&quot;&gt;Cost: $700 per person&lt;/font&gt;&lt;/li&gt;&lt;li style=&quot;box-sizing: border-box; padding: 5px 0px; font-size: 16px;&quot;&gt;&lt;font style=&quot;font-size: 16px;&quot;&gt;Details: Includes safety gear, expert guide, and gourmet meal.&lt;/font&gt;&lt;/li&gt;&lt;/ul&gt;" style="text;html=1;align=center;verticalAlign=middle;whiteSpace=wrap;rounded=0;fontFamily=sans-serif;fontSize=16;" parent="1" vertex="1">
          <mxGeometry x="816" y="401" width="311" height="161" as="geometry" />
        </mxCell>
        <mxCell id="JXR59QSIvElpvNwGaWXN-3" value="" style="rounded=0;whiteSpace=wrap;html=1;labelBackgroundColor=#000000;fontFamily=sans-serif;fontSize=16;" parent="1" vertex="1">
          <mxGeometry x="406" y="195" width="333.7142857142857" height="398" as="geometry" />
        </mxCell>
        <mxCell id="JXR59QSIvElpvNwGaWXN-4" value="&lt;h2 style=&quot;box-sizing: border-box; color: var(--primary-color); margin-top: 0px; margin-bottom: 20px; text-align: start; font-size: 16px;&quot;&gt;Day Adventure Class 2&lt;/h2&gt;" style="text;html=1;align=center;verticalAlign=middle;whiteSpace=wrap;rounded=0;fontSize=16;fontFamily=sans-serif;" parent="1" vertex="1">
          <mxGeometry x="419.0841121495327" y="201" width="240.18691588785046" height="53" as="geometry" />
        </mxCell>
        <mxCell id="JXR59QSIvElpvNwGaWXN-5" value="" style="verticalLabelPosition=bottom;shadow=0;dashed=0;align=center;html=1;verticalAlign=top;strokeWidth=1;shape=mxgraph.mockup.graphics.simpleIcon;strokeColor=#999999;fontFamily=sans-serif;fontSize=16;" parent="1" vertex="1">
          <mxGeometry x="422.8224299065421" y="246" width="286.9158878504673" height="151" as="geometry" />
        </mxCell>
        <mxCell id="JXR59QSIvElpvNwGaWXN-6" value="&lt;p style=&quot;box-sizing: border-box; color: rgb(51, 51, 51); font-size: 16px; text-align: start;&quot;&gt;&lt;span style=&quot;background-color: rgb(255, 255, 255); font-size: 16px;&quot;&gt;Challenge yourself with our Class 2 rapids, ideal for those with some rafting experience.&lt;/span&gt;.&lt;/p&gt;&lt;ul style=&quot;box-sizing: border-box; list-style-type: none; padding: 0px; color: rgb(51, 51, 51); font-size: 16px; text-align: start;&quot;&gt;&lt;li style=&quot;box-sizing: border-box; padding: 5px 0px; font-size: 16px;&quot;&gt;Length: 2 hours&lt;/li&gt;&lt;li style=&quot;box-sizing: border-box; padding: 5px 0px; font-size: 16px;&quot;&gt;Cost: $500 per person&lt;/li&gt;&lt;li style=&quot;box-sizing: border-box; padding: 5px 0px; font-size: 16px;&quot;&gt;Details: Includes safety gear, guide, and lunch.&lt;/li&gt;&lt;/ul&gt;" style="text;html=1;align=center;verticalAlign=middle;whiteSpace=wrap;rounded=0;fontFamily=sans-serif;fontSize=16;" parent="1" vertex="1">
          <mxGeometry x="422.8228571428571" y="412" width="306.6057142857142" height="149" as="geometry" />
        </mxCell>
        <mxCell id="dC-ACJdYf5ny8029RXBL-4" value="Contact Us" style="strokeWidth=1;shadow=0;dashed=0;align=center;html=1;shape=mxgraph.mockup.buttons.button;strokeColor=#666666;fontColor=#ffffff;mainText=;buttonStyle=round;fontSize=17;fontStyle=1;fillColor=#008cff;whiteSpace=wrap;" vertex="1" parent="1">
          <mxGeometry x="128" y="712" width="150" height="50" as="geometry" />
        </mxCell>
      </root>
    </mxGraphModel>
  </diagram>
  <diagram id="xaFkhoAatP5pj6HJT2wW" name="Homepage">
    <mxGraphModel dx="1467" dy="710" grid="1" gridSize="5" guides="1" tooltips="1" connect="1" arrows="1" fold="1" page="1" pageScale="1" pageWidth="1200" pageHeight="1600" math="0" shadow="0">
      <root>
        <mxCell id="0" />
        <mxCell id="1" parent="0" />
        <mxCell id="U31QHFaTJ5vS6q2cD7Z--1" value="" style="rounded=0;whiteSpace=wrap;html=1;fillColor=#990099;strokeColor=#9673a6;fontFamily=sans-serif;" parent="1" vertex="1">
          <mxGeometry x="10" y="10" width="1150" height="110" as="geometry" />
        </mxCell>
        <mxCell id="U31QHFaTJ5vS6q2cD7Z--2" value="" style="verticalLabelPosition=bottom;shadow=0;dashed=0;align=center;html=1;verticalAlign=top;strokeWidth=1;shape=mxgraph.mockup.graphics.simpleIcon;strokeColor=#999999;fontFamily=sans-serif;" parent="1" vertex="1">
          <mxGeometry x="80" y="20" width="100" height="90" as="geometry" />
        </mxCell>
        <mxCell id="U31QHFaTJ5vS6q2cD7Z--3" value="" style="swimlane;shape=mxgraph.bootstrap.anchor;strokeColor=#999999;fillColor=#ffffff;fontColor=#666666;childLayout=stackLayout;horizontal=0;startSize=0;horizontalStack=1;resizeParent=1;resizeParentMax=0;resizeLast=0;collapsible=0;marginBottom=0;whiteSpace=wrap;html=1;fontFamily=sans-serif;" parent="1" vertex="1">
          <mxGeometry x="280" y="40" width="480" height="40" as="geometry" />
        </mxCell>
        <mxCell id="U31QHFaTJ5vS6q2cD7Z--4" value="Home" style="text;strokeColor=inherit;align=center;verticalAlign=middle;spacingLeft=10;spacingRight=10;overflow=hidden;points=[[0,0.5],[1,0.5]];portConstraint=eastwest;rotatable=0;whiteSpace=wrap;html=1;fillColor=inherit;fontColor=inherit;fontSize=17;fontFamily=sans-serif;" parent="U31QHFaTJ5vS6q2cD7Z--3" vertex="1">
          <mxGeometry width="90" height="40" as="geometry" />
        </mxCell>
        <mxCell id="U31QHFaTJ5vS6q2cD7Z--5" style="edgeStyle=orthogonalEdgeStyle;rounded=0;orthogonalLoop=1;jettySize=auto;html=1;exitX=1;exitY=0.5;exitDx=0;exitDy=0;entryX=0;entryY=0.5;entryDx=0;entryDy=0;fontFamily=sans-serif;" parent="U31QHFaTJ5vS6q2cD7Z--3" source="U31QHFaTJ5vS6q2cD7Z--6" target="U31QHFaTJ5vS6q2cD7Z--7" edge="1">
          <mxGeometry relative="1" as="geometry" />
        </mxCell>
        <mxCell id="U31QHFaTJ5vS6q2cD7Z--6" value="About Us" style="text;strokeColor=inherit;align=center;verticalAlign=middle;spacingLeft=10;spacingRight=10;overflow=hidden;points=[[0,0.5],[1,0.5]];portConstraint=eastwest;rotatable=0;whiteSpace=wrap;html=1;fillColor=inherit;fontColor=inherit;fontSize=17;fontFamily=sans-serif;" parent="U31QHFaTJ5vS6q2cD7Z--3" vertex="1">
          <mxGeometry x="90" width="130" height="40" as="geometry" />
        </mxCell>
        <mxCell id="U31QHFaTJ5vS6q2cD7Z--7" value="" style="text;strokeColor=inherit;align=center;verticalAlign=middle;spacingLeft=10;spacingRight=10;overflow=hidden;points=[[0,0.5],[1,0.5]];portConstraint=eastwest;rotatable=0;whiteSpace=wrap;html=1;fillColor=inherit;fontColor=inherit;fontSize=17;fontFamily=sans-serif;" parent="U31QHFaTJ5vS6q2cD7Z--3" vertex="1">
          <mxGeometry x="220" width="30" height="40" as="geometry" />
        </mxCell>
        <mxCell id="U31QHFaTJ5vS6q2cD7Z--8" value="Trips" style="text;strokeColor=inherit;align=center;verticalAlign=middle;spacingLeft=10;spacingRight=10;overflow=hidden;points=[[0,0.5],[1,0.5]];portConstraint=eastwest;rotatable=0;whiteSpace=wrap;html=1;fillColor=inherit;fontColor=inherit;fontSize=17;fontFamily=sans-serif;" parent="U31QHFaTJ5vS6q2cD7Z--3" vertex="1">
          <mxGeometry x="250" width="120" height="40" as="geometry" />
        </mxCell>
        <mxCell id="U31QHFaTJ5vS6q2cD7Z--9" value="Contact Us" style="text;strokeColor=inherit;align=center;verticalAlign=middle;spacingLeft=10;spacingRight=10;overflow=hidden;points=[[0,0.5],[1,0.5]];portConstraint=eastwest;rotatable=0;whiteSpace=wrap;html=1;fillColor=inherit;fontColor=inherit;fontSize=17;fontFamily=sans-serif;" parent="U31QHFaTJ5vS6q2cD7Z--3" vertex="1">
          <mxGeometry x="370" width="110" height="40" as="geometry" />
        </mxCell>
        <mxCell id="U31QHFaTJ5vS6q2cD7Z--10" value="" style="rounded=0;whiteSpace=wrap;html=1;fillColor=#990099;strokeColor=#9673a6;" parent="1" vertex="1">
          <mxGeometry x="12" y="1888" width="1148" height="182" as="geometry" />
        </mxCell>
        <mxCell id="U31QHFaTJ5vS6q2cD7Z--11" value="" style="verticalLabelPosition=bottom;shadow=0;dashed=0;align=center;html=1;verticalAlign=top;strokeWidth=1;shape=mxgraph.mockup.graphics.simpleIcon;strokeColor=#999999;" parent="1" vertex="1">
          <mxGeometry x="410" y="1981.5" width="71" height="70.5" as="geometry" />
        </mxCell>
        <mxCell id="U31QHFaTJ5vS6q2cD7Z--12" value="" style="verticalLabelPosition=bottom;shadow=0;dashed=0;align=center;html=1;verticalAlign=top;strokeWidth=1;shape=mxgraph.mockup.graphics.simpleIcon;strokeColor=#999999;" parent="1" vertex="1">
          <mxGeometry x="527.5" y="1981.75" width="72" height="72" as="geometry" />
        </mxCell>
        <mxCell id="U31QHFaTJ5vS6q2cD7Z--13" value="" style="verticalLabelPosition=bottom;shadow=0;dashed=0;align=center;html=1;verticalAlign=top;strokeWidth=1;shape=mxgraph.mockup.graphics.simpleIcon;strokeColor=#999999;" parent="1" vertex="1">
          <mxGeometry x="645" y="1981.75" width="71" height="70" as="geometry" />
        </mxCell>
        <mxCell id="U31QHFaTJ5vS6q2cD7Z--14" value="&lt;b style=&quot;font-size: 15px;&quot;&gt;Footer Content including Social Media Icons/Links&lt;/b&gt;" style="text;html=1;align=center;verticalAlign=middle;whiteSpace=wrap;rounded=0;fontColor=#FFCCE6;" parent="1" vertex="1">
          <mxGeometry x="370" y="1910" width="370" height="30" as="geometry" />
        </mxCell>
        <mxCell id="FrETwaGCalUenwU7QLiu-1" value="" style="verticalLabelPosition=bottom;shadow=0;dashed=0;align=center;html=1;verticalAlign=top;strokeWidth=1;shape=mxgraph.mockup.graphics.simpleIcon;strokeColor=#999999;flipV=0;flipH=0;fontFamily=sans-serif;" parent="1" vertex="1">
          <mxGeometry x="12" y="1260" width="210" height="210" as="geometry" />
        </mxCell>
        <mxCell id="FrETwaGCalUenwU7QLiu-2" value="" style="verticalLabelPosition=bottom;shadow=0;dashed=0;align=center;html=1;verticalAlign=top;strokeWidth=1;shape=mxgraph.mockup.graphics.simpleIcon;strokeColor=#999999;flipV=0;flipH=0;fontFamily=sans-serif;" parent="1" vertex="1">
          <mxGeometry x="12" y="1530" width="210" height="210" as="geometry" />
        </mxCell>
        <mxCell id="FrETwaGCalUenwU7QLiu-3" value="" style="verticalLabelPosition=bottom;shadow=0;dashed=0;align=center;html=1;verticalAlign=top;strokeWidth=1;shape=mxgraph.mockup.graphics.simpleIcon;strokeColor=#999999;flipV=0;flipH=0;fontFamily=sans-serif;" parent="1" vertex="1">
          <mxGeometry x="10" y="990" width="210" height="210" as="geometry" />
        </mxCell>
        <mxCell id="FrETwaGCalUenwU7QLiu-7" value="&lt;font face=&quot;Courier New&quot; style=&quot;font-size: 24px;&quot;&gt;Explore Our Trips&lt;/font&gt;" style="text;html=1;align=center;verticalAlign=middle;whiteSpace=wrap;rounded=0;labelBorderColor=default;fontSize=24;" parent="1" vertex="1">
          <mxGeometry x="10" y="920" width="260" height="100" as="geometry" />
        </mxCell>
        <mxCell id="cTAolF_El6C1wyCuFI-0-4" value="&lt;div style=&quot;box-sizing: border-box; color: rgb(51, 51, 51); text-align: start; background-color: rgb(250, 250, 250); font-size: 19px;&quot; class=&quot;grid-item&quot;&gt;&lt;p style=&quot;box-sizing: border-box;&quot;&gt;&lt;font style=&quot;font-size: 19px;&quot; face=&quot;sans-serif&quot;&gt;Our mission is to provide safe, exciting, and memorable rafting trips.&lt;/font&gt;&lt;/p&gt;&lt;/div&gt;&lt;div style=&quot;box-sizing: border-box; color: rgb(51, 51, 51); text-align: start; background-color: rgb(250, 250, 250); font-size: 19px;&quot; class=&quot;grid-item&quot;&gt;&lt;p style=&quot;box-sizing: border-box;&quot;&gt;&lt;font style=&quot;font-size: 19px;&quot; face=&quot;c_kCjnujhE3hJaz0yDwf&quot;&gt;Book your adventure today and make memories that will last a lifetime.&lt;/font&gt;&lt;/p&gt;&lt;/div&gt;" style="text;html=1;align=center;verticalAlign=middle;whiteSpace=wrap;rounded=0;" vertex="1" parent="1">
          <mxGeometry x="7" y="1790" width="592.5" height="80" as="geometry" />
        </mxCell>
        <mxCell id="cTAolF_El6C1wyCuFI-0-5" value="&lt;span style=&quot;color: rgb(51, 51, 51); font-family: &amp;quot;Open Sans&amp;quot;, sans-serif; font-size: 21px; text-align: start; background-color: rgb(250, 250, 250);&quot;&gt;Discover scenic view and thrilling rapids.&lt;/span&gt;" style="text;html=1;align=center;verticalAlign=middle;whiteSpace=wrap;rounded=0;" vertex="1" parent="1">
          <mxGeometry x="12" y="1750" width="387.5" height="30" as="geometry" />
        </mxCell>
        <mxCell id="cTAolF_El6C1wyCuFI-0-6" value="&lt;span style=&quot;color: rgb(51, 51, 51); text-align: start; background-color: rgb(250, 250, 250); font-size: 21px;&quot;&gt;&lt;font style=&quot;font-size: 21px;&quot; face=&quot;sans-serif&quot;&gt;We offer trips for all skill levels, from beginner to expert.&lt;/font&gt;&lt;/span&gt;" style="text;html=1;align=center;verticalAlign=middle;whiteSpace=wrap;rounded=0;fontFamily=sans-serif;fontSize=21;" vertex="1" parent="1">
          <mxGeometry x="10" y="1475" width="525" height="35" as="geometry" />
        </mxCell>
        <mxCell id="cTAolF_El6C1wyCuFI-0-7" value="&lt;h2 style=&quot;box-sizing: border-box; color: var(--primary-color); margin-top: 0px; margin-bottom: 20px; text-align: start; background-color: rgb(250, 250, 250);&quot;&gt;&lt;font style=&quot;font-size: 25px;&quot; face=&quot;sans-serif&quot;&gt;Plan Your Adventure Now!&lt;/font&gt;&lt;/h2&gt;" style="text;html=1;align=center;verticalAlign=middle;whiteSpace=wrap;rounded=0;" vertex="1" parent="1">
          <mxGeometry x="10" y="855" width="315" height="70" as="geometry" />
        </mxCell>
        <mxCell id="cTAolF_El6C1wyCuFI-0-18" value="&lt;h2 style=&quot;box-sizing: border-box; color: var(--primary-color); margin-top: 0px; margin-bottom: 20px; text-align: start; background-color: rgb(250, 250, 250);&quot;&gt;&lt;font face=&quot;sans-serif&quot; style=&quot;font-size: 28px;&quot;&gt;Sign Up for Our Newsletter&lt;/font&gt;&lt;/h2&gt;" style="text;html=1;align=center;verticalAlign=middle;whiteSpace=wrap;rounded=0;" vertex="1" parent="1">
          <mxGeometry x="7" y="715" width="373" height="55" as="geometry" />
        </mxCell>
        <mxCell id="cTAolF_El6C1wyCuFI-0-19" value="&lt;font style=&quot;font-size: 25px;&quot; face=&quot;sans-serif&quot;&gt;Book Your Trip Now&lt;/font&gt;" style="strokeWidth=1;shadow=0;dashed=0;align=center;html=1;shape=mxgraph.mockup.buttons.button;strokeColor=#666666;fontColor=#ffffff;mainText=;buttonStyle=round;fontSize=17;fontStyle=1;fillColor=#FF9999;whiteSpace=wrap;" vertex="1" parent="1">
          <mxGeometry x="8" y="645" width="265" height="50" as="geometry" />
        </mxCell>
        <mxCell id="cTAolF_El6C1wyCuFI-0-23" value="&lt;span style=&quot;color: rgb(51, 51, 51); font-family: &amp;quot;Open Sans&amp;quot;, sans-serif; text-align: start; background-color: rgb(250, 250, 250);&quot;&gt;&lt;font style=&quot;font-size: 24px;&quot;&gt;Join us for an unforgettable rafting experience!&lt;/font&gt;&lt;/span&gt;" style="text;html=1;align=center;verticalAlign=middle;whiteSpace=wrap;rounded=0;" vertex="1" parent="1">
          <mxGeometry x="7" y="1205" width="508" height="60" as="geometry" />
        </mxCell>
        <mxCell id="cTAolF_El6C1wyCuFI-0-8" value="" style="rounded=0;whiteSpace=wrap;html=1;" vertex="1" parent="1">
          <mxGeometry x="665" y="775" width="345" height="60" as="geometry" />
        </mxCell>
        <mxCell id="cTAolF_El6C1wyCuFI-0-12" value="&lt;font face=&quot;sans-serif&quot; style=&quot;font-size: 23px;&quot;&gt;Your Email&lt;/font&gt;" style="text;html=1;align=center;verticalAlign=middle;whiteSpace=wrap;rounded=0;" vertex="1" parent="1">
          <mxGeometry x="670" y="790" width="120" height="30" as="geometry" />
        </mxCell>
        <mxCell id="cTAolF_El6C1wyCuFI-0-13" value="&lt;font style=&quot;font-size: 32px;&quot;&gt;Email:&lt;/font&gt;" style="text;html=1;align=center;verticalAlign=middle;whiteSpace=wrap;rounded=0;" vertex="1" parent="1">
          <mxGeometry x="545" y="775" width="115" height="60" as="geometry" />
        </mxCell>
        <mxCell id="cTAolF_El6C1wyCuFI-0-17" value="&lt;font color=&quot;#e0e0e0&quot; style=&quot;font-size: 27px;&quot;&gt;Subscribe&lt;/font&gt;" style="strokeWidth=1;shadow=0;dashed=0;align=center;html=1;shape=mxgraph.mockup.buttons.button;strokeColor=#666666;fontColor=#ffffff;mainText=;buttonStyle=round;fontSize=27;fontStyle=1;fillColor=#FFFFFF;whiteSpace=wrap;fontFamily=sans-serif;" vertex="1" parent="1">
          <mxGeometry x="1030" y="780" width="150" height="50" as="geometry" />
        </mxCell>
        <mxCell id="cTAolF_El6C1wyCuFI-0-24" value="" style="edgeStyle=orthogonalEdgeStyle;rounded=0;orthogonalLoop=1;jettySize=auto;html=1;" edge="1" parent="1" source="cTAolF_El6C1wyCuFI-0-11" target="cTAolF_El6C1wyCuFI-0-18">
          <mxGeometry relative="1" as="geometry" />
        </mxCell>
        <mxCell id="cTAolF_El6C1wyCuFI-0-9" value="" style="rounded=0;whiteSpace=wrap;html=1;" vertex="1" parent="1">
          <mxGeometry x="130" y="775" width="370" height="60" as="geometry" />
        </mxCell>
        <mxCell id="cTAolF_El6C1wyCuFI-0-10" value="&lt;font style=&quot;font-size: 32px;&quot;&gt;Name:&lt;/font&gt;" style="text;html=1;align=center;verticalAlign=middle;whiteSpace=wrap;rounded=0;" vertex="1" parent="1">
          <mxGeometry x="10" y="775" width="115" height="60" as="geometry" />
        </mxCell>
        <mxCell id="cTAolF_El6C1wyCuFI-0-11" value="&lt;font face=&quot;sans-serif&quot; style=&quot;font-size: 23px;&quot;&gt;Your name&lt;/font&gt;" style="text;html=1;align=center;verticalAlign=middle;whiteSpace=wrap;rounded=0;" vertex="1" parent="1">
          <mxGeometry x="140" y="790" width="120" height="30" as="geometry" />
        </mxCell>
        <mxCell id="cTAolF_El6C1wyCuFI-0-22" style="edgeStyle=orthogonalEdgeStyle;rounded=0;orthogonalLoop=1;jettySize=auto;html=1;exitX=1;exitY=0.5;exitDx=0;exitDy=0;entryX=1;entryY=0.25;entryDx=0;entryDy=0;" edge="1" parent="1" source="cTAolF_El6C1wyCuFI-0-10" target="cTAolF_El6C1wyCuFI-0-10">
          <mxGeometry relative="1" as="geometry" />
        </mxCell>
        <mxCell id="cTAolF_El6C1wyCuFI-0-25" value="&lt;span style=&quot;color: rgb(51, 51, 51); font-size: 24px; text-align: start; background-color: rgb(250, 250, 250);&quot;&gt;Experiencethe thrill of white water rafting!&lt;/span&gt;" style="text;html=1;align=center;verticalAlign=middle;whiteSpace=wrap;rounded=0;fontSize=24;fontFamily=sans-serif;" vertex="1" parent="1">
          <mxGeometry x="10" y="565" width="434" height="30" as="geometry" />
        </mxCell>
        <mxCell id="cTAolF_El6C1wyCuFI-0-27" value="" style="group" vertex="1" connectable="0" parent="1">
          <mxGeometry x="10" y="120" width="1150" height="430" as="geometry" />
        </mxCell>
        <mxCell id="S0nwz9DDY4xaaSrTntnl-2" value="" style="verticalLabelPosition=bottom;shadow=0;dashed=0;align=center;html=1;verticalAlign=top;strokeWidth=1;shape=mxgraph.mockup.graphics.simpleIcon;strokeColor=#999999;" parent="cTAolF_El6C1wyCuFI-0-27" vertex="1">
          <mxGeometry width="1150" height="430" as="geometry" />
        </mxCell>
        <mxCell id="cTAolF_El6C1wyCuFI-0-26" value="Image that includes heading message" style="text;html=1;align=center;verticalAlign=middle;whiteSpace=wrap;rounded=0;fontFamily=sans-serif;fontSize=35;fontStyle=1" vertex="1" parent="cTAolF_El6C1wyCuFI-0-27">
          <mxGeometry x="438.5" y="130" width="275" height="170" as="geometry" />
        </mxCell>
      </root>
    </mxGraphModel>
  </diagram>
</mxfile>
